<?xml version="1.0" encoding="UTF-8" standalone="no"?>
<svg width="32px" height="32px" viewBox="0 0 32 32" version="1.1" xmlns="http://www.w3.org/2000/svg" xmlns:xlink="http://www.w3.org/1999/xlink" xmlns:sketch="http://www.bohemiancoding.com/sketch/ns">
    <!-- Generator: Sketch 3.3.3 (12081) - http://www.bohemiancoding.com/sketch -->
    <title>32</title>
    <desc>Created with Sketch.</desc>
    <defs></defs>
    <g id="Page-1" stroke="none" stroke-width="1" fill="none" fill-rule="evenodd" sketch:type="MSPage">
        <g id="32" sketch:type="MSArtboardGroup" fill="#000000">
            <g id="CALENDAR-Copy-4" sketch:type="MSLayerGroup" transform="translate(3.000000, 2.000000)">
                <path d="M8.66666667,10.4 L12.1333333,10.4 L12.1333333,13.8666667 L8.66666667,13.8666667 L8.66666667,10.4 L8.66666667,10.4 Z" id="Fill-1" sketch:type="MSShapeGroup"></path>
                <path d="M13.8666667,10.4 L17.3333333,10.4 L17.3333333,13.8666667 L13.8666667,13.8666667 L13.8666667,10.4 L13.8666667,10.4 Z" id="Fill-2" sketch:type="MSShapeGroup"></path>
                <path d="M19.0666667,10.4 L22.5333333,10.4 L22.5333333,13.8666667 L19.0666667,13.8666667 L19.0666667,10.4 L19.0666667,10.4 Z" id="Fill-3" sketch:type="MSShapeGroup"></path>
                <path d="M3.46666667,15.6 L6.93333333,15.6 L6.93333333,19.0666667 L3.46666667,19.0666667 L3.46666667,15.6 L3.46666667,15.6 Z" id="Fill-4" sketch:type="MSShapeGroup"></path>
                <path d="M8.66666667,15.6 L12.1333333,15.6 L12.1333333,19.0666667 L8.66666667,19.0666667 L8.66666667,15.6 L8.66666667,15.6 Z" id="Fill-5" sketch:type="MSShapeGroup"></path>
                <path d="M13.8666667,15.6 L17.3333333,15.6 L17.3333333,19.0666667 L13.8666667,19.0666667 L13.8666667,15.6 L13.8666667,15.6 Z" id="Fill-6" sketch:type="MSShapeGroup"></path>
                <path d="M19.0666667,15.6 L22.5333333,15.6 L22.5333333,19.0666667 L19.0666667,19.0666667 L19.0666667,15.6 L19.0666667,15.6 Z" id="Fill-7" sketch:type="MSShapeGroup"></path>
                <path d="M3.46666667,20.8 L6.93333333,20.8 L6.93333333,24.2666667 L3.46666667,24.2666667 L3.46666667,20.8 L3.46666667,20.8 Z" id="Fill-8" sketch:type="MSShapeGroup"></path>
                <path d="M8.66666667,20.8 L12.1333333,20.8 L12.1333333,24.2666667 L8.66666667,24.2666667 L8.66666667,20.8 L8.66666667,20.8 Z" id="Fill-9" sketch:type="MSShapeGroup"></path>
                <path d="M13.8666667,20.8 L17.3333333,20.8 L17.3333333,24.2666667 L13.8666667,24.2666667 L13.8666667,20.8 L13.8666667,20.8 Z" id="Fill-10" sketch:type="MSShapeGroup"></path>
                <path d="M22.5333333,3.46666667 L22.5333333,0.866666667 C22.5333333,0.39 22.1450667,0 21.6666667,0 L18.2,0 C17.7216,0 17.3333333,0.39 17.3333333,0.866666667 L17.3333333,3.46666667 L8.66666667,3.46666667 L8.66666667,0.866666667 C8.66666667,0.39 8.2784,0 7.8,0 L4.33333333,0 C3.85493333,0 3.46666667,0.39 3.46666667,0.866666667 L3.46666667,3.46666667 L0,3.46666667 L0,27.7333333 L26,27.7333333 L26,3.46666667 L22.5333333,3.46666667 L22.5333333,3.46666667 Z M19.0666667,1.73333333 L20.8,1.73333333 L20.8,5.2 L19.0666667,5.2 L19.0666667,1.73333333 L19.0666667,1.73333333 Z M5.2,1.73333333 L6.93333333,1.73333333 L6.93333333,5.2 L5.2,5.2 L5.2,1.73333333 L5.2,1.73333333 Z M1.73333333,8.66666667 L24.2666667,8.66666667 L24.2666667,26 L1.73333333,26 L1.73333333,8.66666667 L1.73333333,8.66666667 Z" id="Fill-11" sketch:type="MSShapeGroup"></path>
            </g>
        </g>
    </g>
</svg>