<?xml version="1.0" encoding="utf-8"?>
<!-- Generator: Adobe Illustrator 19.1.0, SVG Export Plug-In . SVG Version: 6.00 Build 0)  -->
<svg version="1.1" id="Layer_1" xmlns="http://www.w3.org/2000/svg" xmlns:xlink="http://www.w3.org/1999/xlink" x="0px" y="0px"
	 viewBox="0 0 34 34" style="enable-background:new 0 0 34 34;" xml:space="preserve">
<path d="M29,26.9l-9.2-9.2L29,8.6c0.8-0.8,0.8-2.1,0-2.8S27,5,26.2,5.7L17,14.9L7.8,5.7C7,5,5.8,5,5,5.7C4.2,6.5,4.2,7.8,5,8.6
	l9.2,9.2L5,26.9c-0.8,0.8-0.8,2.1,0,2.8c0.8,0.8,2.1,0.8,2.8,0l9.2-9.2l9.2,9.2c0.8,0.8,2.1,0.8,2.8,0C29.8,29,29.8,27.7,29,26.9z"
	/>
</svg>
