<?xml version="1.0" encoding="UTF-8" standalone="no"?>
<svg width="32px" height="32px" viewBox="0 0 32 32" version="1.1" xmlns="http://www.w3.org/2000/svg" xmlns:xlink="http://www.w3.org/1999/xlink" xmlns:sketch="http://www.bohemiancoding.com/sketch/ns">
    <!-- Generator: Sketch 3.3.3 (12081) - http://www.bohemiancoding.com/sketch -->
    <title>32</title>
    <desc>Created with Sketch.</desc>
    <defs></defs>
    <g id="Page-1" stroke="none" stroke-width="1" fill="none" fill-rule="evenodd" sketch:type="MSPage">
        <g id="32" sketch:type="MSArtboardGroup" fill="#000000">
            <g id="hamburger" sketch:type="MSLayerGroup" transform="translate(2.000000, 6.000000)">
                <path d="M1.19899244,2.45673552 L26.7775214,2.45673552 C27.4369673,2.45673552 27.9765139,1.91718892 27.9765139,1.25774307 C27.9765139,0.598297229 27.4369673,0.0587506297 26.7775214,0.0587506297 L1.19899244,0.0587506297 C0.539546599,0.0587506297 0,0.598297229 0,1.25774307 C0,1.91718892 0.539546599,2.45673552 1.19899244,2.45673552 L1.19899244,2.45673552 Z" id="Shape" sketch:type="MSShapeGroup"></path>
                <path d="M1.19899244,11.4491788 L26.7775214,11.4491788 C27.4369673,11.4491788 27.9765139,10.9096322 27.9765139,10.2501864 C27.9765139,9.59074055 27.4369673,9.05119395 26.7775214,9.05119395 L1.19899244,9.05119395 C0.539546599,9.05119395 0,9.59074055 0,10.2501864 C0,10.9096322 0.539546599,11.4491788 1.19899244,11.4491788 L1.19899244,11.4491788 Z" id="Shape" sketch:type="MSShapeGroup"></path>
                <path d="M1.19899244,20.4416222 L26.7775214,20.4416222 C27.4369673,20.4416222 27.9765139,19.9020756 27.9765139,19.2426297 C27.9765139,18.5831839 27.4369673,18.0436373 26.7775214,18.0436373 L1.19899244,18.0436373 C0.539546599,18.0436373 0,18.5831839 0,19.2426297 C0,19.9020756 0.539546599,20.4416222 1.19899244,20.4416222 L1.19899244,20.4416222 Z" id="Shape" sketch:type="MSShapeGroup"></path>
            </g>
        </g>
    </g>
</svg>