<?xml version="1.0" encoding="utf-8"?>
<!-- Generator: Adobe Illustrator 19.1.0, SVG Export Plug-In . SVG Version: 6.00 Build 0)  -->
<svg version="1.1" id="Layer_1" xmlns="http://www.w3.org/2000/svg" xmlns:xlink="http://www.w3.org/1999/xlink" x="0px" y="0px"
	 viewBox="0 0 32 32" style="enable-background:new 0 0 32 32;" xml:space="preserve">
<style type="text/css">
	.st0{fill:#060507;}
</style>
<g>
	<path class="st0" d="M16,2C8.3,2,2,8.3,2,16s6.3,14,14,14s14-6.3,14-14S23.7,2,16,2z M18.9,23.7c-0.7,0.3-1.3,0.5-1.7,0.6
		c-0.4,0.1-0.9,0.2-1.5,0.2c-0.9,0-1.6-0.2-2-0.6c-0.5-0.4-0.7-1-0.7-1.6c0-0.3,0-0.5,0.1-0.8c0-0.3,0.1-0.6,0.2-0.9l0.9-3.2
		c0.1-0.3,0.1-0.6,0.2-0.9c0.1-0.3,0.1-0.5,0.1-0.8c0-0.4-0.1-0.7-0.3-0.8c-0.2-0.2-0.5-0.2-1-0.2c-0.2,0-0.5,0-0.7,0.1
		c-0.2,0.1-0.5,0.1-0.6,0.2l0.2-1c0.6-0.2,1.2-0.4,1.7-0.6c0.5-0.2,1-0.3,1.5-0.3c0.9,0,1.5,0.2,2,0.6c0.5,0.4,0.7,1,0.7,1.6
		c0,0.1,0,0.4,0,0.7c0,0.3-0.1,0.7-0.2,1l-0.9,3.2c-0.1,0.3-0.1,0.5-0.2,0.9c-0.1,0.3-0.1,0.6-0.1,0.7c0,0.4,0.1,0.7,0.3,0.9
		c0.2,0.2,0.5,0.2,1,0.2c0.2,0,0.5,0,0.7-0.1c0.3-0.1,0.5-0.1,0.6-0.2L18.9,23.7z M18.7,10.8c-0.4,0.4-0.9,0.6-1.5,0.6
		c-0.6,0-1.1-0.2-1.5-0.6c-0.4-0.4-0.6-0.9-0.6-1.4c0-0.6,0.2-1,0.6-1.4c0.4-0.4,0.9-0.6,1.5-0.6c0.6,0,1.1,0.2,1.5,0.6
		c0.4,0.4,0.6,0.9,0.6,1.4C19.4,9.9,19.2,10.4,18.7,10.8z"/>
</g>
</svg>
