<?xml version="1.0" encoding="UTF-8" standalone="no"?>
<svg width="32px" height="32px" viewBox="0 0 32 32" version="1.1" xmlns="http://www.w3.org/2000/svg" xmlns:xlink="http://www.w3.org/1999/xlink" xmlns:sketch="http://www.bohemiancoding.com/sketch/ns">
    <!-- Generator: Sketch 3.3.3 (12081) - http://www.bohemiancoding.com/sketch -->
    <title>32</title>
    <desc>Created with Sketch.</desc>
    <defs></defs>
    <g id="Page-1" stroke="none" stroke-width="1" fill="none" fill-rule="evenodd" sketch:type="MSPage">
        <g id="32" sketch:type="MSArtboardGroup" fill="#000000">
            <g id="key" sketch:type="MSLayerGroup" transform="translate(3.000000, 3.000000)">
                <path d="M6.79237866,15.731432 C8.66481106,15.731432 10.188568,17.2551889 10.188568,19.1276205 C10.188568,21.0000532 8.66481106,22.5238101 6.79237866,22.5238101 C4.91994626,22.5238101 3.39618938,21.0000532 3.39618938,19.1276205 C3.39618938,17.2551889 4.91994626,15.731432 6.79237866,15.731432 M6.79237866,25.9199997 C10.5383755,25.9199997 13.5847573,22.872486 13.5847573,19.1276205 C13.5847573,18.0838589 13.3390997,17.049153 12.8726897,16.1106729 L18.1130097,10.8714849 L20.377136,13.135611 L22.3095678,11.2031789 L20.0454415,8.93905281 L21.5091991,7.47529533 L24.3393569,10.3054537 L26.8378202,7.80699033 L24.0076624,4.97683197 L25.3061388,3.67948737 C26.1506579,2.83383657 26.1506579,1.46064465 25.3061388,0.61386093 C24.4865251,-0.20462031 23.0589935,-0.20462031 22.241644,0.61386093 L9.80819474,13.0461783 C8.87084654,12.5809003 7.83614088,12.3352424 6.79237866,12.3352424 C3.04638181,12.3352424 0,15.3816243 0,19.1276205 C0,22.872486 3.04638181,25.9199997 6.79237866,25.9199997" sketch:type="MSShapeGroup"></path>
            </g>
        </g>
    </g>
</svg>