<?xml version="1.0" encoding="UTF-8" standalone="no"?>
<svg width="32px" height="32px" viewBox="0 0 32 32" version="1.1" xmlns="http://www.w3.org/2000/svg" xmlns:xlink="http://www.w3.org/1999/xlink" xmlns:sketch="http://www.bohemiancoding.com/sketch/ns">
    <!-- Generator: Sketch 3.3.3 (12081) - http://www.bohemiancoding.com/sketch -->
    <title>32</title>
    <desc>Created with Sketch.</desc>
    <defs></defs>
    <g id="Page-1" stroke="none" stroke-width="1" fill="none" fill-rule="evenodd" sketch:type="MSPage">
        <g id="32" sketch:type="MSArtboardGroup" fill="#000000">
            <g id="luggage" sketch:type="MSLayerGroup" transform="translate(3.000000, 3.000000)">
                <path d="M17.4780201,5.04570134 C17.0348859,5.04570134 16.6751174,4.68645637 16.6751174,4.24284228 L16.6751174,1.60645974 L9.03277517,1.60645974 L9.03277517,4.2423188 C9.03277517,4.68593289 8.67300671,5.04517785 8.22939262,5.04517785 C7.78577852,5.04517785 7.42601006,4.68593289 7.42601006,4.2423188 L7.42601006,0.803077181 C7.42601006,0.359463088 7.78577852,0.000218120806 8.22939262,0.000218120806 L17.4774531,0.000218120806 C17.9205437,0.000218120806 18.2803121,0.359463088 18.2803121,0.803077181 L18.2803121,4.24227517 C18.2808792,4.68645637 17.9210671,5.04570134 17.4780201,5.04570134" id="Fill-1" sketch:type="MSShapeGroup"></path>
                <path d="M20.1560201,3.81811745 L5.55082551,3.81811745 C5.55248322,3.83814094 5.56164429,3.85602685 5.56164429,3.87600671 L5.56164429,25.9098289 C5.56164429,25.9303758 5.55248322,25.9476946 5.55082551,25.9682852 L20.1560201,25.9682852 C20.1538389,25.9476946 20.1452014,25.9304195 20.1452014,25.9098289 L20.1452014,3.87657383 C20.1457248,3.85602685 20.1538389,3.83814094 20.1560201,3.81811745" id="Fill-2" sketch:type="MSShapeGroup"></path>
                <path d="M23.4404832,3.81811745 L21.2044832,3.81811745 C21.2066645,3.83814094 21.2158691,3.85602685 21.2158691,3.87600671 L21.2158691,25.9098289 C21.2158691,25.9303758 21.2060974,25.9476946 21.2044832,25.9682852 L23.4404832,25.9682852 C24.6886141,25.9682852 25.7040974,24.872708 25.7040974,23.5250705 L25.7040974,6.26080872 C25.7040974,4.91369463 24.6886141,3.81811745 23.4404832,3.81811745" id="Fill-3" sketch:type="MSShapeGroup"></path>
                <path d="M4.49097651,25.910396 L4.49097651,3.87657383 C4.49097651,3.85602685 4.49965772,3.83870805 4.50179531,3.81868457 L2.26636242,3.81868457 C1.01823154,3.81868457 0.00274832215,4.91421812 0.00274832215,6.26133222 L0.00274832215,23.5266846 C0.00274832215,24.8737986 1.01823154,25.9698994 2.26636242,25.9698994 L4.50127181,25.9698994 C4.49965772,25.9482617 4.49097651,25.9309429 4.49097651,25.910396" id="Fill-4" sketch:type="MSShapeGroup"></path>
            </g>
        </g>
    </g>
</svg>