<?xml version="1.0" encoding="UTF-8" standalone="no"?>
<svg width="32px" height="32px" viewBox="0 0 32 32" version="1.1" xmlns="http://www.w3.org/2000/svg" xmlns:xlink="http://www.w3.org/1999/xlink" xmlns:sketch="http://www.bohemiancoding.com/sketch/ns">
    <!-- Generator: Sketch 3.3.3 (12081) - http://www.bohemiancoding.com/sketch -->
    <title>32</title>
    <desc>Created with Sketch.</desc>
    <defs></defs>
    <g id="Page-1" stroke="none" stroke-width="1" fill="none" fill-rule="evenodd" sketch:type="MSPage">
        <g id="32" sketch:type="MSArtboardGroup" fill="#000000">
            <g id="plane" sketch:type="MSLayerGroup" transform="translate(3.000000, 3.000000)">
                <path d="M20.3514773,23.0872573 L22.1741793,21.2645999 C22.2846298,21.1541493 22.3398551,20.9884289 22.2846298,20.8779784 L19.9648556,9.44478357 C19.9096304,9.27910759 19.9648556,9.16861247 20.0753509,9.05816189 L25.2671966,3.86631616 C26.1509349,2.9825779 26.1509349,1.54649754 25.2671966,0.662803701 C24.3835028,-0.220934567 22.9474224,-0.220934567 22.0637287,0.662803701 L16.7061179,6.02036984 C16.5956673,6.13082053 16.4852167,6.18604582 16.3194963,6.13082053 L4.72062567,3.97676674 C4.5549498,3.97676674 4.44445467,3.97676674 4.33400409,4.08721733 L2.45607687,6.02036984 C2.2351756,6.24131565 2.29040089,6.62793722 2.56657199,6.7383878 L11.3485518,10.6046928 C11.6247227,10.7151434 11.679948,11.1017651 11.4590023,11.3227108 L5.77003991,17.0116732 C5.65958933,17.1221238 5.49386892,17.1773936 5.38341823,17.1221238 L1.62760832,16.3488807 C1.46188791,16.2936554 1.35143733,16.3488807 1.24098675,16.4593312 L0.136302673,17.5640153 C-0.0845984884,17.784961 -0.0293731982,18.1163128 0.246797794,18.2820332 L4.00260781,20.1046906 C4.00260781,20.1599604 4.0578331,20.1599604 4.11305839,20.2151857 L5.71481462,21.8169419 C5.77003991,21.8721672 5.77003991,21.8721672 5.77003991,21.9273925 L7.70319243,25.7384278 C7.81368755,26.0145988 8.20030912,26.0698241 8.42121028,25.8489229 L9.36017395,24.9099593 C9.47066907,24.7995087 9.52589436,24.6337883 9.47066907,24.5233377 L8.69738128,20.7122579 C8.64215599,20.546582 8.69738128,20.4360868 8.80787651,20.3256363 L14.8282352,14.3052776 C15.0491364,14.0843317 15.3805328,14.1395571 15.5462532,14.4157281 L19.6886847,22.9768067 C19.7991798,23.2529777 20.1305762,23.308203 20.3514773,23.0872573" sketch:type="MSShapeGroup"></path>
            </g>
        </g>
    </g>
</svg>