<?xml version="1.0" encoding="utf-8"?>
<!-- Generator: Adobe Illustrator 19.1.0, SVG Export Plug-In . SVG Version: 6.00 Build 0)  -->
<svg version="1.1" id="Layer_1" xmlns="http://www.w3.org/2000/svg" xmlns:xlink="http://www.w3.org/1999/xlink" x="0px" y="0px"
	 viewBox="0 0 34 34" style="enable-background:new 0 0 34 34;" xml:space="preserve">
<style type="text/css">
	.st0{fill:#010101;}
</style>
<path class="st0" d="M30.2,26.4l-7-7c-0.5-0.5-1.2-0.8-1.9-0.8c2.6-3.9,2.2-9.2-1.2-12.7C16.2,2,9.8,2,5.9,5.9
	C2,9.8,2,16.2,5.9,20.1c3.4,3.4,8.8,3.9,12.7,1.2c0,0.7,0.3,1.4,0.8,1.9l7,7c1.1,1.1,2.8,1.1,3.8,0C31.3,29.2,31.3,27.4,30.2,26.4z
	 M17.9,17.9c-2.7,2.7-7.1,2.7-9.8,0s-2.7-7.1,0-9.8s7.1-2.7,9.8,0C20.7,10.8,20.7,15.2,17.9,17.9z"/>
</svg>
