<?xml version="1.0" encoding="UTF-8" standalone="no"?>
<svg width="32px" height="32px" viewBox="0 0 32 32" version="1.1" xmlns="http://www.w3.org/2000/svg" xmlns:xlink="http://www.w3.org/1999/xlink" xmlns:sketch="http://www.bohemiancoding.com/sketch/ns">
    <!-- Generator: Sketch 3.3.3 (12081) - http://www.bohemiancoding.com/sketch -->
    <title>32</title>
    <desc>Created with Sketch.</desc>
    <defs></defs>
    <g id="Page-1" stroke="none" stroke-width="1" fill="none" fill-rule="evenodd" sketch:type="MSPage">
        <g id="32" sketch:type="MSArtboardGroup" fill="#000000">
            <g id="user" sketch:type="MSLayerGroup" transform="translate(5.000000, 3.000000)">
                <path d="M14.5753119,14.8015767 L14.5753119,12.8817992 C15.5469993,12.1336 15.8884781,10.7288173 15.9509438,9.50865633 C16.5631068,9.10471191 16.8601656,8.17883182 16.8601656,7.42924464 C16.8601656,6.83373875 16.6797094,6.22018839 16.2132993,5.85372306 C16.954558,4.1324479 16.8268506,2.83316272 16.4270706,2.06136502 C15.6400037,0.538592189 13.5120082,0 11.799062,0 C10.1013852,0 7.95950846,0.552473901 7.18632281,2.01972208 C6.58665285,1.99195976 6.01752166,2.16963952 5.68992413,2.66242382 C5.11801671,3.5258373 5.64411602,4.88758799 6.04667227,5.83706545 C5.5524998,6.20214173 5.35677414,6.84067961 5.35677414,7.45284311 C5.35677414,8.19548944 5.65938536,9.11442867 6.25905532,9.50865633 C6.29792291,10.2735132 6.44922851,11.1244329 6.7907072,11.8115557 C6.79209537,11.8157195 6.79487161,11.8184954 6.79487161,11.8212724 C7.06139158,12.3543117 7.37788407,12.6846859 7.63468717,12.8817992 L7.63468717,14.8015767 C5.20408036,15.7913091 0.664911813,17.7943736 0.0680180818,19.1533484 C0.0652418492,19.1602881 0.0596893842,19.167229 0.0569131516,19.1727819 C0.0194337376,19.2643977 0,19.3504617 0,19.4337497 L0,25.6803114 C0,26.0634344 0.310940022,26.3743739 0.69406242,26.3743739 L22.2099991,26.3743739 L22.2099991,25.6803114 L22.2099991,19.4337497 C22.2099991,17.9290214 16.0189618,15.3901417 14.5753119,14.8015767" sketch:type="MSShapeGroup"></path>
            </g>
        </g>
    </g>
</svg>