<?xml version="1.0" encoding="utf-8"?>
<!-- Generator: Adobe Illustrator 19.1.0, SVG Export Plug-In . SVG Version: 6.00 Build 0)  -->
<svg version="1.1" id="Layer_1" xmlns="http://www.w3.org/2000/svg" xmlns:xlink="http://www.w3.org/1999/xlink" x="0px" y="0px"
	 viewBox="0 0 32 32" style="enable-background:new 0 0 32 32;" xml:space="preserve">
<style type="text/css">
	.st0{fill:#010101;}
</style>
<g id="Page-1" sketch:type="MSPage">
	<g id="_x33_2" sketch:type="MSArtboardGroup">
		<g id="user" transform="translate(5.000000, 3.000000)" sketch:type="MSLayerGroup">
			<path sketch:type="MSShapeGroup" class="st0" d="M14.7,14.6v-1.9c1-0.7,1.3-2.2,1.4-3.4C16.7,8.9,17,8,17,7.2
				c0-0.6-0.2-1.2-0.6-1.6c0.7-1.7,0.6-3,0.2-3.8c-0.8-1.5-2.9-2.1-4.6-2.1c-1.7,0-3.8,0.6-4.6,2C6.8,1.8,6.2,2,5.9,2.5
				c-0.6,0.9,0,2.2,0.4,3.2C5.7,6,5.5,6.7,5.5,7.3c0,0.7,0.3,1.7,0.9,2.1c0,0.8,0.2,1.6,0.5,2.3c0,0,0,0,0,0
				c0.3,0.5,0.6,0.9,0.8,1.1v1.9c-2.4,1-7,3-7.6,4.4c0,0,0,0,0,0c0,0.1-0.1,0.2-0.1,0.3v6.2c0,0.4,0.3,0.7,0.7,0.7h21.5v-0.7v-6.2
				C22.4,17.7,16.2,15.2,14.7,14.6"/>
		</g>
	</g>
</g>
</svg>
