<?xml version="1.0" encoding="UTF-8" standalone="no"?>
<svg width="52px" height="28px" viewBox="0 0 52 28" version="1.1" xmlns="http://www.w3.org/2000/svg" xmlns:xlink="http://www.w3.org/1999/xlink" xmlns:sketch="http://www.bohemiancoding.com/sketch/ns">
    <!-- Generator: Sketch 3.3.3 (12081) - http://www.bohemiancoding.com/sketch -->
    <title>Shape</title>
    <desc>Created with Sketch.</desc>
    <defs></defs>
    <g id="Page-1" stroke="none" stroke-width="1" fill="none" fill-rule="evenodd" sketch:type="MSPage">
        <g id="Desktop---STICKY-V2" sketch:type="MSArtboardGroup" transform="translate(-199.000000, -56.000000)" fill="#FFFFFF">
            <path d="M249.685036,60.6665828 C250.042107,60.6665828 250.333669,60.3609294 250.333669,60.01795 L250.333669,56.6486328 C250.333669,56.2916457 250.058296,56 249.685036,56 L199.648633,56 C199.291646,56 199,56.3056534 199,56.6486328 L199,60.01795 C199,60.3749371 199.275373,60.6665828 199.648633,60.6665828 L249.685036,60.6665828 L249.685036,60.6665828 Z M199,71.6846167 C199,72.0416038 199.275373,72.3332495 199.648633,72.3332495 L249.684952,72.3332495 C250.041939,72.3332495 250.333585,72.0275122 250.333585,71.6846167 L250.333585,68.3152994 C250.333585,67.9559638 250.058212,67.6666667 249.684952,67.6666667 L199.648633,67.6666667 C199.291646,67.6666667 199,67.972404 199,68.3152994 L199,71.6846167 Z M199,83.3513672 C199,83.7083543 199.275373,84 199.648633,84 L249.684952,84 C250.041939,84 250.333585,83.6942627 250.333585,83.3513672 L250.333585,79.98205 C250.333585,79.6250629 250.058212,79.3335011 249.684952,79.3335011 L199.648633,79.3335011 C199.291646,79.3335011 199,79.6391545 199,79.98205 L199,83.3513672 Z" id="Shape" sketch:type="MSShapeGroup"></path>
        </g>
    </g>
</svg>