<?xml version="1.0" encoding="UTF-8" standalone="no"?>
<svg width="48px" height="46px" viewBox="0 0 48 46" version="1.1" xmlns="http://www.w3.org/2000/svg" xmlns:xlink="http://www.w3.org/1999/xlink" xmlns:sketch="http://www.bohemiancoding.com/sketch/ns">
    <!-- Generator: Sketch 3.3.3 (12081) - http://www.bohemiancoding.com/sketch -->
    <title>Imported Layers Copy</title>
    <desc>Created with Sketch.</desc>
    <defs></defs>
    <g id="Page-1" stroke="none" stroke-width="1" fill="none" fill-rule="evenodd" sketch:type="MSPage">
        <g id="iPad-Portrait---TOP-V2-b" sketch:type="MSArtboardGroup" transform="translate(-1288.000000, -52.000000)" fill="#FFFFFF">
            <g id="Rectangle-19-Copy-3-+-Imported-Layers-Copy" sketch:type="MSLayerGroup" transform="translate(1236.000000, 0.000000)">
                <path d="M99.0617647,74.7411765 C99.0617647,73.4647059 95.9352941,72.8088235 85.2382353,72.3617647 L80.4088235,66.1323529 L82.4470588,66.1323529 C82.9617647,66.1323529 83.3794118,65.7852941 83.3794118,65.2794118 C83.3794118,64.7676471 82.9617647,64.5205882 82.4470588,64.5205882 L79.1588235,64.5205882 L75.5647059,59.8852941 L77.7529412,59.8852941 C78.2705882,59.8852941 78.6882353,59.5411765 78.6882353,59.0323529 C78.6882353,58.5235294 78.2705882,58.2441176 77.7529412,58.2441176 L74.2911765,58.2441176 L69.45,52 L66.3352941,52 C66.3352941,52 70.1735294,60.5823529 72.9294118,66.7441176 C74.0617647,69.2794118 73.4029412,71.3882353 71.6970588,72.3470588 C67.2588235,72.5117647 62.9441176,72.8205882 59.5352941,73.2 L54.0705882,66.1294118 L52,66.1294118 C52,66.1294118 53.05,69.4411765 53.9294118,71.7029412 C54.3852941,72.8647059 53.5323529,73.9058824 53.0029412,74.4117647 C52.7794118,74.5235294 52.6235294,74.6323529 52.6235294,74.7411765 C52.6235294,74.85 52.7794118,74.9617647 53.0029412,75.0705882 C53.5323529,75.5794118 54.3852941,76.6235294 53.9294118,77.7852941 C53.05,80.0470588 52,83.4058824 52,83.4058824 L54.0705882,83.4058824 L59.5382353,76.2882353 C62.9470588,76.6647059 67.2588235,76.9735294 71.6941176,77.1382353 C73.4029412,78.0970588 74.0617647,80.2058824 72.9294118,82.7411765 C70.1735294,88.9058824 66.3352941,97.4882353 66.3352941,97.4882353 L69.45,97.4882353 L74.2911765,91.2441176 L77.8029412,91.2441176 C78.3205882,91.2441176 78.7382353,90.9470588 78.7382353,90.4352941 C78.7382353,89.9294118 78.3205882,89.6323529 77.8029412,89.6323529 L75.5411765,89.6323529 L79.1441176,84.9823529 L82.4147059,84.9823529 C82.9294118,84.9823529 83.3470588,84.6676471 83.3470588,84.1617647 C83.3470588,83.65 82.9294118,83.3558824 82.4147059,83.3558824 L80.4088235,83.3558824 L85.2411765,77.1235294 C95.9352941,76.6794118 99.0617647,76.0235294 99.0617647,74.7411765" id="Imported-Layers-Copy" sketch:type="MSShapeGroup"></path>
            </g>
        </g>
    </g>
</svg>