<svg xmlns="http://www.w3.org/2000/svg" xmlns:xlink="http://www.w3.org/1999/xlink" viewBox="0 0 358.3 77.8" enable-background="new 0 0 358.3 77.8"><defs><path id="a" d="M0 0h358.3v77.8h-358.3z"/></defs><clipPath id="b"><use xlink:href="#a" overflow="visible"/></clipPath><path clip-path="url(#b)" fill="#303030" d="M313 32.1c-3.8-.5-20.3-4.1-34.1 9.7-11.3 11.3-24.6 24.2-24.6 24.2h15.1s1.8-1.9 5.6-5.8h15.7l-1.4 5.8h15.7l8-33.9zm-20.2 19.6h-9.5l1.5-1.5c9.4-10 10.9-9.3 10.9-9.3l-2.9 10.8zM172.9 32.1c-3.8-.5-20.3-4.1-34.1 9.7-11.3 11.3-24.6 24.2-24.6 24.2h15.1s1.8-1.9 5.6-5.8h15.7l-1.4 5.8h15.6l8.1-33.9zm-20.2 19.6h-9.5l1.5-1.5c9.4-10 10.9-9.3 10.9-9.3l-2.9 10.8zM227.8 31.8c-6.4 0-10.8 2.4-13.6 7.3l-5.4 9.6-7.6-16.9h-2.9c-6.4 0-12.9 4.5-16 9.8l-14.4 24.4h14.8l9.7-16.7 7.5 16.7h13.3l19.8-34.2h-5.2zM108.6 31.1c-18.7 0-30.6 9.6-35.6 18.3-4.8 8.3-.2 18.5 17.9 17.7 0 0 3.7 4.7 11.2 5 7.5.3 12.2-6.1 12.2-6.1s-2.6.9-5.3.5c-3.5-.4-4.7-2.4-4.6-2.4 9.9-4.1 15.6-9.3 18.7-14.8 4.9-8.6 4.1-18.2-14.5-18.2m-3.7 18.1c-3.8 5.7-8.1 9.8-13.4 9.5-6.4-.3-4.5-5.1-1.2-9.6 4-5.5 9-10.3 14.4-10 6.4.3 4 4.5.2 10.1"/><path clip-path="url(#b)" fill="#303030" d="M245.1 31.8c-6.5 0-11.1 2.8-13.1 6.4l-1.7 2.8h14.7l-14.5 25h16.1l14.6-25 4.5-.1c5.8 0 11.1-2.8 13.1-6.4l1.6-2.8-35.3.1zM337.9 42.6c11.6 3.2 16.7 6.1 16.1 11.4-1 7.8-12.3 13.1-26.3 12.8-14-.3-20.5-5.1-20.5-5.1l8.7-7.1s6.1 3.2 14.4 3.4c5.3.1 6-1.2 6.1-1.5.3-1.1-1.1-1.5-4.8-2.7-7.4-2.4-14.5-4.8-13.7-11.5 1-8 13.9-11.6 25.1-11.3 7.8.2 15.6 3 15.6 3-3.1 5.6-8.4 6.2-10.4 6.2-2.7 0-4.8-.6-8.8-.7-3.3-.1-4.4 1.3-3.8 2.1.1.4.7.6 2.3 1"/><path fill="#E4000C" d="M0 0v77.8h84.6z"/><defs><path id="c" d="M0 0h358.3v77.8h-358.3z"/></defs><clipPath id="d"><use xlink:href="#c" overflow="visible"/></clipPath><path clip-path="url(#d)" fill="#fff" d="M0 20.1c0 .6.1 1.9.3 2.6 3.4 10.6 22.5 6.4 34.9 24.2 0 0 2.4.3 4-2.6 0 0-3.3-.3-3.5-2.7 0 0 6.8 1.4 10.8 4.6 0 0 .1 1.5-4.7 1.5-.9.1-1.3.1-2.8 1.6 0 0-3.8 4.1-7.6 4.1-1.2 0-2.1-.5-2.1-.8 0 0-.2-.5.7-.3 0 0 2.1.5 3-.3 0 0-.9-1.3-2.4-1.2-.9-.1-1.9.3-2.5 1.1 0 0-3.1 3.8 5.7 7.9 12.7 5.5 19.7 13.7 18.7 15.8-1.2-1.1-11.5-13.9-29.3-15.4l.2-.6c1.9-8.9-2.3-14.9-7-18.3-4.7-3.8-13.7-7-16.4-15.4v-5.8z"/></svg>