<?xml version="1.0" encoding="UTF-8" standalone="no"?>
<svg width="65px" height="72px" viewBox="0 0 65 72" version="1.1" xmlns="http://www.w3.org/2000/svg" xmlns:xlink="http://www.w3.org/1999/xlink" xmlns:sketch="http://www.bohemiancoding.com/sketch/ns">
    <!-- Generator: Sketch 3.3.3 (12081) - http://www.bohemiancoding.com/sketch -->
    <title>Fill 8</title>
    <desc>Created with Sketch.</desc>
    <defs></defs>
    <g id="Page-1" stroke="none" stroke-width="1" fill="none" fill-rule="evenodd" sketch:type="MSPage">
        <g id="Desktop---STICKY-V2" sketch:type="MSArtboardGroup" transform="translate(-341.000000, -32.000000)" fill="#F50000">
            <g id="logo-copy" sketch:type="MSLayerGroup" transform="translate(341.000000, 32.000000)">
                <path d="M0.572552975,0.10114646 C0.595797648,0.877949605 0.723031642,2.54308356 0.995850688,3.4327112 C5.11872147,17.1350518 28.5114254,11.7207728 43.7489197,34.8057023 C43.7611537,34.8057023 46.6410462,35.1467695 48.5972689,31.4248579 C48.5972689,31.4248579 44.5563662,31.0941654 44.3055684,27.8637537 C44.3055684,27.8637537 52.5831185,29.6170723 57.5599251,33.890138 C57.5599251,33.890138 57.6247655,35.8003735 51.8368421,35.8340912 C50.681949,35.9144948 50.191364,35.9936016 48.361152,37.9038371 C48.361152,37.9038371 43.7220048,43.2467903 39.0106768,43.1611993 C37.5780709,43.1067323 36.4794543,42.5296415 36.4072735,42.0770466 C36.4072735,42.0770466 36.2139757,41.4338173 37.2917944,41.6672473 C37.2917944,41.6672473 39.8156765,42.3792088 40.9999313,41.2289177 C40.9999313,41.2289177 39.923336,39.5949077 38.053975,39.6117666 C36.9247733,39.5417376 35.7380716,39.9450527 34.9905719,41.0266117 C34.9905719,41.0266117 31.2530733,46.0142325 41.9174842,51.2651106 C57.4204571,58.4534575 66.0479006,69.0459919 64.8024755,71.7978722 C64.8183798,71.8082468 64.8024755,71.7978722 64.8024755,71.7978722 C63.2927953,70.647581 50.6929596,54.015694 28.9702018,52.109349 C28.9702018,52.109349 29.0852018,51.7592041 29.1696167,51.2832662 C31.4402541,39.7686834 26.3827028,31.9721216 20.6669603,27.5226865 C14.8937178,22.5882358 3.87819003,18.5058046 0.572552975,7.56182842 L0.572552975,0.10114646" id="Fill-8" sketch:type="MSShapeGroup"></path>
            </g>
        </g>
    </g>
</svg>